<?xml version="1.0" standalone="no"?>
<!DOCTYPE svg PUBLIC "-//W3C//DTD SVG 20010904//EN"
 "http://www.w3.org/TR/2001/REC-SVG-20010904/DTD/svg10.dtd">
<svg version="1.0" xmlns="http://www.w3.org/2000/svg"
 width="1024.000000pt" height="1024.000000pt" viewBox="0 0 1024.000000 1024.000000"
 preserveAspectRatio="xMidYMid meet">

<g transform="translate(0.000000,1024.000000) scale(0.100000,-0.100000)"
fill="#000000" stroke="none">
<path d="M3056 8575 c-214 -43 -390 -139 -542 -296 -97 -101 -131 -149 -189
-271 -48 -100 -77 -199 -94 -323 -8 -52 -11 -873 -11 -2628 0 -2804 -4 -2633
61 -2827 41 -123 89 -218 155 -306 139 -185 336 -318 574 -387 l75 -21 1795
-4 c1130 -1 1825 1 1876 7 107 13 272 67 360 119 268 156 425 363 512 672 l27
95 3 1023 c2 700 -1 1022 -8 1022 -5 0 -10 -5 -10 -10 0 -15 -124 -165 -232
-281 l-93 -100 0 -797 c0 -899 5 -834 -81 -1009 -74 -151 -217 -285 -363 -343
-132 -52 -48 -49 -1937 -51 -1960 -1 -1823 -6 -1972 68 -86 42 -204 148 -263
234 -22 32 -53 92 -69 132 -64 160 -60 -7 -58 2832 l3 2580 27 68 c51 128 91
190 173 272 87 88 168 136 290 175 l70 23 1802 -2 c1157 0 1819 -4 1847 -11
98 -22 230 -92 307 -162 47 -44 119 -139 148 -196 70 -138 65 -72 71 -1061 l5
-894 173 198 173 198 -4 691 c-3 658 -4 695 -24 781 -30 131 -75 240 -142 341
-137 208 -334 355 -577 431 l-89 28 -1850 2 c-1535 1 -1862 -1 -1919 -12z"/>
<path d="M6114 7451 c-242 -59 -397 -296 -362 -552 21 -158 143 -309 297 -368
105 -41 233 -45 323 -11 133 49 242 154 288 278 34 88 39 221 11 308 -56 170
-196 304 -368 348 -75 20 -99 19 -189 -3z m216 -202 c79 -36 124 -92 156 -198
31 -104 7 -199 -69 -276 -81 -80 -179 -104 -292 -70 -77 24 -117 56 -153 122
-40 77 -50 151 -28 225 46 158 246 260 386 197z"/>
<path d="M4855 7442 c-245 -73 -408 -313 -366 -540 61 -331 401 -508 682 -356
230 125 325 395 217 621 -52 112 -179 226 -296 267 -69 25 -169 28 -237 8z
m231 -205 c83 -42 132 -108 153 -204 28 -136 -58 -286 -192 -333 -71 -25 -112
-25 -180 0 -73 27 -130 79 -164 148 -23 48 -28 69 -27 132 1 47 7 89 18 113
33 74 109 140 196 168 46 15 142 3 196 -24z"/>
<path d="M3525 7423 c-128 -59 -197 -115 -249 -202 -55 -92 -68 -146 -64 -269
3 -98 6 -114 35 -173 90 -183 246 -289 427 -291 129 -1 208 27 313 111 71 58
115 114 145 188 20 50 23 75 23 183 0 122 -1 127 -34 195 -46 94 -150 197
-246 244 -65 32 -79 35 -180 38 -103 3 -114 2 -170 -24z m241 -168 c163 -48
262 -273 186 -421 -26 -49 -84 -105 -142 -135 -36 -19 -60 -24 -125 -24 -69 1
-87 5 -131 29 -73 40 -121 92 -144 159 -40 115 -18 230 59 307 92 92 185 119
297 85z"/>
<path d="M4863 6095 c-154 -28 -281 -126 -350 -270 -31 -66 -37 -89 -41 -169
-6 -112 8 -176 55 -267 49 -95 123 -168 216 -214 68 -33 90 -39 164 -43 103
-6 177 9 255 50 175 93 278 269 265 453 -17 236 -166 414 -386 460 -84 17 -83
17 -178 0z"/>
<path d="M6132 6089 c-117 -15 -244 -95 -306 -192 -166 -262 -76 -590 199
-721 106 -50 170 -59 266 -37 41 10 94 28 119 39 114 55 222 176 255 286 19
60 21 227 4 289 -43 161 -202 306 -368 337 -60 11 -78 11 -169 -1z m216 -208
c72 -37 119 -94 143 -173 26 -83 21 -147 -17 -225 -78 -162 -296 -203 -437
-82 -97 84 -131 198 -91 311 24 68 110 158 174 181 62 23 171 17 228 -12z"/>
<path d="M3517 6056 c-201 -84 -322 -281 -303 -493 6 -69 52 -179 104 -250 36
-48 124 -116 185 -142 226 -97 511 10 616 232 66 140 66 268 1 403 -54 111
-119 181 -216 230 -76 38 -79 39 -203 42 -115 2 -131 0 -184 -22z m276 -166
c121 -45 181 -136 182 -275 0 -91 -14 -128 -76 -198 -103 -118 -302 -124 -414
-12 -102 102 -115 279 -30 392 76 98 218 138 338 93z"/>
<path d="M7857 5876 c-26 -7 -62 -26 -79 -42 -35 -33 -459 -537 -533 -634 -27
-36 -82 -99 -120 -140 -80 -85 -93 -100 -634 -740 -217 -256 -397 -469 -401
-473 -9 -10 -122 100 -370 362 -180 189 -219 221 -285 240 -126 35 -248 -70
-249 -214 0 -71 19 -113 89 -195 69 -80 464 -509 575 -623 135 -140 208 -170
330 -137 58 15 126 85 357 360 234 280 360 429 391 465 121 137 161 186 186
223 16 23 54 68 84 100 30 31 81 91 115 132 33 41 88 107 122 145 33 39 92
108 130 155 39 47 156 186 261 310 282 333 310 371 322 427 28 130 -47 254
-170 283 -54 12 -62 12 -121 -4z"/>
<path d="M3590 4736 c-149 -42 -274 -143 -336 -273 -66 -137 -56 -318 24 -443
113 -176 250 -242 459 -221 83 9 111 16 180 51 79 39 157 109 184 164 8 17 6
16 -11 -4 -16 -19 -14 -10 10 38 32 65 44 118 55 236 5 51 4 66 -5 61 -9 -5
-10 1 -6 22 5 22 -3 48 -34 111 -67 133 -197 237 -329 262 -69 13 -134 11
-191 -4z m217 -205 c70 -35 114 -81 146 -151 25 -55 29 -73 24 -121 -22 -249
-297 -374 -474 -215 -69 63 -103 136 -103 224 0 103 31 173 103 232 76 61 216
76 304 31z"/>
<path d="M4825 4732 c-214 -95 -309 -208 -337 -400 -23 -158 23 -303 130 -409
100 -98 217 -139 380 -130 51 2 95 7 99 10 3 4 -7 21 -23 40 -16 18 -46 54
-68 80 -29 36 -45 47 -67 47 -42 0 -129 35 -171 70 -89 73 -125 244 -76 352
49 106 136 168 249 176 l67 5 55 67 56 68 -42 17 c-63 26 -202 30 -252 7z"/>
<path d="M3590 3393 c-62 -11 -170 -74 -230 -135 -150 -154 -180 -345 -84
-537 85 -170 265 -272 458 -259 193 13 374 161 423 345 24 91 4 248 -44 352
-23 49 -127 150 -189 183 -91 49 -227 70 -334 51z m215 -197 c54 -23 126 -96
153 -156 64 -141 7 -286 -140 -360 -192 -95 -408 38 -408 252 0 140 85 248
220 279 45 10 132 3 175 -15z"/>
<path d="M4860 3389 c-111 -22 -244 -120 -305 -223 -82 -140 -89 -301 -20
-451 132 -287 518 -357 745 -135 194 190 193 492 -2 677 -66 62 -158 110 -247
129 -74 15 -105 16 -171 3z m213 -212 c108 -49 161 -133 161 -257 0 -117 -50
-196 -156 -249 -46 -24 -75 -31 -117 -31 -84 0 -125 16 -184 70 -89 81 -123
189 -93 292 50 174 222 252 389 175z"/>
</g>
</svg>
